<?xml version="1.0"?>


<svg width="137.32359mm" height="143.92154mm" viewBox="0 0 137.32359 143.92154" version="1.1" id="svg1" xml:space="preserve" xmlns="http://www.w3.org/2000/svg" xmlns:svg="http://www.w3.org/2000/svg"><defs id="defs1"></defs><g id="layer1" transform="translate(-35.813493,-76.075337)"><path style="fill:#f7f1e6;fill-opacity:1" d="m 99.968706,219.58656 c -9.032758,-1.63445 -16.731458,-8.78045 -19.407217,-18.01393 -0.368035,-1.27001 -0.72385,-2.36381 -0.7907,-2.43066 -0.06685,-0.0668 -1.04786,-0.0971 -2.18002,-0.0671 -6.462027,0.17081 -12.609101,-2.42108 -17.29765,-7.2935 -4.61978,-4.80095 -7.008159,-10.9486 -6.80119,-17.50615 l 0.0862,-2.73106 -2.248958,-0.873 c -4.239367,-1.64563 -7.467114,-3.98414 -10.196052,-7.38707 -2.042238,-2.54662 -3.027039,-4.35755 -4.081906,-7.50612 -2.080844,-6.2109 -1.518885,-13.25042 1.541784,-19.31357 2.422535,-4.79901 7.41991,-9.27685 12.619697,-11.30772 l 1.836269,-0.71718 0.0039,-4.0114 c 0.0032,-3.36339 0.100044,-4.34545 0.599268,-6.07929 1.403194,-4.87338 3.204428,-7.91271 6.771446,-11.42586 2.620173,-2.58061 4.676263,-3.920575 7.964787,-5.190709 2.98778,-1.153978 5.130767,-1.546298 8.475224,-1.551574 l 2.912502,-0.0046 0.888372,-2.624368 c 2.991883,-8.838423 10.20023,-15.305056 19.059789,-17.098604 3.269739,-0.661934 8.587639,-0.43054 11.739939,0.51083 5.73794,1.713519 10.48426,5.224139 13.92918,10.302747 1.16763,1.721339 2.789,5.232117 3.35092,7.255749 l 0.45917,1.653646 h 2.44094 c 9.35456,0 17.40799,5.078063 21.55199,13.589533 1.96638,4.0388 2.89109,8.84274 2.41843,12.56384 -0.18027,1.41921 -0.14863,1.70111 0.20418,1.81941 7.06183,2.3679 12.24852,6.91788 15.22182,13.35319 1.594,3.45 2.09721,5.91479 2.09627,10.26777 -8.9e-4,4.14791 -0.32864,6.03623 -1.60058,9.22164 -2.3943,5.99626 -7.89984,11.42185 -13.71251,13.5134 l -1.5875,0.57122 -0.008,3.89114 c -0.006,3.22963 -0.10932,4.24627 -0.60503,5.98004 -3.13454,10.96335 -12.70073,18.33008 -23.53913,18.12701 -1.35087,-0.0253 -2.51461,0.0125 -2.5861,0.084 -0.0715,0.0715 -0.37048,1.01014 -0.66443,2.08589 -0.29394,1.07575 -1.11586,3.14654 -1.82647,4.60174 -4.98662,10.21169 -15.89792,15.75665 -27.03879,13.74073 z m 9.965664,-3.40039 c 0.87313,-0.23091 2.83417,-1.0326 4.35787,-1.78154 2.43054,-1.19468 3.083,-1.67331 5.31899,-3.90192 5.11088,-5.094 7.36649,-10.85803 7.04778,-18.00999 -0.32805,-7.36179 -2.70981,-12.56038 -8.44239,-18.42696 -2.54466,-2.60414 -2.97565,-2.94382 -3.39938,-2.6792 -0.26689,0.16668 -0.63271,0.57857 -0.81293,0.91532 -0.30758,0.57472 -0.14902,0.79452 2.58574,3.58436 3.24345,3.30876 4.23387,4.64124 5.51806,7.4238 2.45624,5.32214 2.74827,11.47059 0.81534,17.16603 -1.19504,3.5212 -2.26814,5.22623 -5.05158,8.02634 -1.95537,1.96709 -2.78346,2.59025 -4.6302,3.48437 -3.15695,1.52847 -5.37264,2.04388 -8.73125,2.03105 -4.42927,-0.0169 -8.304894,-1.37307 -11.695001,-4.09225 -2.341108,-1.87779 -3.737474,-3.6658 -5.252432,-6.72558 -1.902479,-3.84246 -2.22993,-5.318 -2.231217,-10.05417 -9.08e-4,-3.34537 0.09407,-4.30121 0.604656,-6.08541 0.821037,-2.86902 2.468514,-6.08 4.257746,-8.29846 0.816174,-1.01197 7.228719,-7.46424 14.250098,-14.33838 7.02138,-6.87414 12.76615,-12.57768 12.76615,-12.67453 0,-0.0969 -0.35174,-0.51307 -0.78163,-0.92493 l -0.78163,-0.74885 -11.05848,10.86525 c -13.342811,13.10968 -15.840636,15.65491 -17.108036,17.4327 -1.307289,1.83374 -3.186875,5.86312 -3.841473,8.23519 -3.780179,13.69826 3.795018,27.07116 16.902499,29.83885 2.16558,0.45728 7.20614,0.31716 9.3927,-0.26109 z m -0.39687,-6.2339 c 6.17144,-2.08526 10.58333,-8.01332 10.58333,-14.22035 0,-1.66674 -0.72618,-4.93175 -1.47193,-6.61803 -1.00362,-2.26936 -2.81625,-4.6088 -6.48829,-8.37399 l -3.38325,-3.46907 -0.8642,0.85249 -0.8642,0.85248 3.58954,3.64698 c 5.3184,5.40352 6.8365,8.14703 6.8365,12.35499 0,7.80203 -7.03979,14.02105 -14.60113,12.89878 -9.051572,-1.34345 -13.76176,-10.96578 -9.401984,-19.20708 0.685824,-1.29642 2.290714,-3.0221 8.259974,-8.88169 4.07482,-3.99995 10.6792,-10.51305 14.6764,-14.47357 l 7.26763,-7.20093 -0.63302,-0.67383 c -0.34817,-0.3706 -0.75402,-0.67382 -0.9019,-0.67382 -0.31092,0 -1.55753,1.19748 -17.1612,16.48485 -12.701985,12.44452 -13.67022,13.57898 -14.899456,17.45735 -1.344601,4.24236 -1.124789,7.92147 0.688619,11.52581 2.164847,4.30286 5.948714,7.22211 10.698777,8.25408 1.82876,0.39731 6.15974,0.10994 8.06979,-0.53545 z m -1.39453,-5.86985 c 1.13502,-0.42332 1.97435,-1.01697 3.27081,-2.31343 2.33349,-2.33349 2.98139,-3.97373 2.83133,-7.16795 -0.16652,-3.54475 -0.76885,-4.57801 -5.41523,-9.28945 -2.13691,-2.16684 -3.97048,-3.93971 -4.0746,-3.93971 -0.10412,0 -1.90736,1.65888 -4.00721,3.68641 -4.219675,4.07433 -5.238043,5.56528 -5.753271,8.4231 -0.551529,3.05917 0.441765,6.08702 2.758528,8.40879 2.871223,2.87742 6.499723,3.64304 10.389643,2.19224 z m -28.767969,-9.31061 v -1.15215 l -2.579688,-0.15018 c -7.072484,-0.41172 -12.542672,-4.03852 -15.790574,-10.46933 -2.300603,-4.55516 -2.300603,-11.1368 0,-15.69197 1.366361,-2.70538 2.32699,-3.82903 8.148791,-9.53167 l 5.855846,-5.73599 -0.840448,-0.85406 -0.840448,-0.85405 -5.468259,5.26713 c -7.020157,6.76195 -8.26411,8.40845 -9.995245,13.2298 -3.495064,9.73404 1.337759,20.73227 11.122071,25.3109 2.489423,1.16494 5.084476,1.74151 7.940558,1.76424 l 2.447396,0.0195 z m 57.282289,0.75737 c 2.26065,-0.47065 6.59283,-2.58277 8.65765,-4.22098 3.32524,-2.63821 6.25601,-7.2751 7.35226,-11.63229 0.53696,-2.13424 0.75393,-7.39269 0.3162,-7.66322 -0.1157,-0.0715 -0.68124,-0.0668 -1.25677,0.0104 l -1.04642,0.14044 -0.0179,2.68592 c -0.0216,3.24888 -0.52133,5.32947 -2.01144,8.37447 -0.90926,1.85805 -1.54138,2.68779 -3.63667,4.77359 -1.98551,1.97653 -2.96693,2.73381 -4.52049,3.4881 -2.68255,1.30245 -4.93749,1.85898 -7.9375,1.959 l -2.51354,0.0838 -0.0806,1.19775 -0.0806,1.19775 2.46189,-0.005 c 1.35405,-0.003 3.29533,-0.17811 4.31398,-0.39019 z m -14.66773,-5.17007 c -0.79636,-5.13268 -2.58274,-8.47673 -6.9917,-13.08828 l -3.03552,-3.175 -0.86623,0.84952 -0.86622,0.84952 3.74404,3.8221 c 5.28586,5.39606 7.04154,8.25083 7.80525,12.69145 0.28245,1.64237 0.33717,1.76039 0.40937,0.88304 0.0458,-0.55698 -0.0437,-1.83154 -0.19899,-2.83235 z m -33.412965,-1.75943 c 1.150793,-3.01393 2.834397,-4.99004 11.563485,-13.57252 4.65926,-4.58101 11.15022,-10.97839 14.42436,-14.21642 l 5.95298,-5.88731 -0.79361,-0.7904 -0.7936,-0.7904 -4.7625,4.69304 c -2.61938,2.58117 -8.71085,8.56033 -13.53662,13.28702 -7.06615,6.92108 -9.037112,9.00601 -10.125191,10.71064 -1.72818,2.70746 -2.939947,6.34755 -3.082743,9.26042 l -0.103764,2.11667 0.366831,-1.71979 c 0.201757,-0.94589 0.602424,-2.33681 0.890372,-3.09095 z m -9.307909,1.56554 c 0.159808,-0.10691 0.367372,-0.68663 0.461253,-1.28825 l 0.170692,-1.09387 -1.657351,0.13303 c -5.809243,0.46631 -11.47101,-3.67633 -13.258563,-9.70113 -0.555523,-1.87234 -0.555403,-5.57289 2.41e-4,-7.44458 1.016485,-3.42404 1.671482,-4.29384 7.598156,-10.08995 l 5.601262,-5.47787 -0.800456,-0.8076 -0.800455,-0.80761 -5.336615,5.1756 c -3.463184,3.3587 -5.701238,5.75294 -6.375272,6.8202 -3.223114,5.10344 -3.546522,10.94155 -0.903944,16.31785 1.903699,3.87306 6.439534,7.39334 10.512575,8.15885 1.631851,0.3067 4.396575,0.36751 4.788477,0.10533 z m 55.801104,-0.19421 c 1.01865,-0.21314 2.8161,-0.86264 3.99435,-1.44334 5.20702,-2.5663 8.96438,-9.01266 8.47233,-14.53564 -0.0829,-0.93022 -0.18334,-1.72275 -0.22326,-1.76119 -0.0399,-0.0384 -0.60837,-0.14965 -1.26321,-0.24715 l -1.19063,-0.17727 0.0916,2.37846 c 0.1008,2.61705 -0.29993,4.45827 -1.47502,6.7772 -0.88533,1.74711 -3.80732,4.64654 -5.59631,5.55309 -1.95856,0.99247 -4.79866,1.55371 -6.79855,1.34347 l -1.60743,-0.16898 0.15222,1.12896 c 0.12354,0.91621 0.27688,1.16358 0.81368,1.31266 1.09414,0.30384 2.6733,0.24918 4.63021,-0.16027 z m -54.832466,-5.66449 c 0.551053,-0.20951 0.97723,-0.83683 1.877924,-2.76427 1.774951,-3.79829 3.376069,-6.06154 6.665116,-9.42143 l 3.002027,-3.06669 -4.125605,-4.14946 -4.125605,-4.14946 -3.108706,2.96615 c -3.47996,3.32037 -6.481264,5.34717 -10.003928,6.75571 -1.258586,0.50324 -2.366201,1.03562 -2.461368,1.18305 -0.357602,0.554 -0.486849,3.02062 -0.236658,4.51652 0.645023,3.85663 3.65613,7.22853 7.402453,8.28943 1.296906,0.36726 3.946097,0.28462 5.11435,-0.15955 z m 53.694966,0.20776 c 2.89361,-0.61332 5.47977,-2.62795 6.91532,-5.38706 0.75662,-1.45422 0.82858,-1.80905 0.83249,-4.10534 0.006,-3.69113 -0.0364,-3.77641 -2.30791,-4.61189 -3.83497,-1.41053 -8.73963,-4.90125 -12.62801,-8.98754 l -0.91728,-0.96396 -4.04366,4.03734 c -2.22401,2.22055 -4.04366,4.14461 -4.04366,4.27571 0,0.1311 1.31637,1.59721 2.92526,3.25802 3.22905,3.33324 5.37485,6.39409 6.79256,9.68914 0.51273,1.1917 0.97483,2.2144 1.02689,2.27268 0.1765,0.1976 2.6127,0.78426 3.33133,0.80222 0.39302,0.01 1.34552,-0.11587 2.11667,-0.27932 z m 20.84172,-16.37963 c 5.51718,-1.55042 10.28203,-5.44156 12.9587,-10.58251 3.43817,-6.60352 3.07994,-14.97042 -0.90594,-21.15943 -2.68897,-4.17524 -6.49559,-7.23143 -10.8904,-8.74347 l -1.38387,-0.47612 -0.41479,1.21735 c -0.22814,0.66953 -0.41479,1.24609 -0.41479,1.28123 0,0.0352 0.62507,0.26549 1.38906,0.51187 1.81612,0.5857 3.4049,1.49632 5.35781,3.07087 6.07933,4.9015 8.42996,13.20078 5.84454,20.63515 -0.94834,2.72695 -2.14159,4.57338 -4.52162,6.99676 -1.76109,1.79317 -2.53892,2.3614 -4.63021,3.38259 -3.43617,1.6779 -5.31561,2.12761 -8.86354,2.12088 -3.66789,-0.007 -5.78315,-0.51063 -9.39271,-2.23647 l -2.77813,-1.32832 -13.68635,-13.81147 -13.68636,-13.81148 -0.85242,0.85168 -0.85241,0.85167 12.5544,12.64168 c 6.90492,6.95293 13.2952,13.24308 14.20062,13.9781 3.29025,2.67105 6.63322,4.2009 11.0089,5.03805 2.61203,0.49973 7.38729,0.29422 9.95951,-0.42861 z m -99.683849,-1.16712 0.43555,-1.17517 -1.64731,-0.54819 c -3.716902,-1.23691 -7.510291,-4.31243 -9.501315,-7.70329 -2.913243,-4.96146 -3.387271,-11.60768 -1.202243,-16.85635 2.928621,-7.03486 9.926628,-11.52011 17.943908,-11.50083 1.620979,0.004 3.5377,0.18624 4.601745,0.43778 2.27889,0.53872 5.682979,2.13071 7.49276,3.50414 0.758385,0.57553 6.726759,6.51693 13.263054,13.20311 6.536295,6.68618 12.37316,12.6256 12.97081,13.19871 l 1.08664,1.04202 0.66541,-0.62512 c 0.36598,-0.34382 0.66541,-0.7642 0.66541,-0.93419 0,-0.29081 -12.169659,-12.83842 -22.475674,-23.1737 -4.956839,-4.97091 -6.594799,-6.17687 -10.389813,-7.64959 -3.177587,-1.23312 -5.941429,-1.67372 -9.452374,-1.50686 -9.105287,0.43274 -16.449592,5.85712 -19.359161,14.29835 -1.953335,5.66701 -1.611104,10.85189 1.086282,16.45744 2.260014,4.69663 6.918694,8.87992 11.510536,10.33594 1.666315,0.52836 1.833516,0.47005 2.305785,-0.8042 z m 16.93364,-0.69916 c 1.998225,-1.00727 4.243527,-2.77937 6.816876,-5.3802 l 2.508384,-2.53518 -0.793797,-0.7938 -0.793798,-0.7938 -5.088024,4.96111 c -2.798413,2.72861 -5.088024,5.10697 -5.088024,5.28524 0,0.36828 0.589746,0.1885 2.438383,-0.74337 z m 19.364923,-5.36365 c -8.989317,-9.32791 -20.709916,-21.27278 -22.712918,-23.14752 -6.079255,-5.68998 -13.7842,-5.88219 -19.239843,-0.47997 -2.096155,2.07563 -3.442523,4.65743 -4.074312,7.81293 -1.568059,7.83172 3.598941,15.96921 11.024367,17.36223 0.852129,0.15986 0.968378,0.093 1.764154,-1.01513 0.468552,-0.65245 0.851912,-1.24238 0.851912,-1.31096 0,-0.0686 -0.656347,-0.20671 -1.458549,-0.30693 -2.104025,-0.26289 -4.80573,-1.70618 -6.451803,-3.44666 -4.366647,-4.61708 -4.420721,-12.22197 -0.119599,-16.82022 1.497459,-1.6009 2.965053,-2.50964 5.152581,-3.19047 1.942056,-0.60444 3.578906,-0.63137 5.646245,-0.0929 3.156467,0.82215 3.433447,1.06867 18.211645,16.20875 l 14.032444,14.37606 0.791096,-0.79109 0.791096,-0.7911 z m 56.248776,3.1396 c -2.22321,-0.44534 -4.41175,-1.42571 -6.48437,-2.90469 -0.9119,-0.65072 -7.8357,-7.43892 -15.38622,-15.08488 l -13.72822,-13.90175 -0.91098,0.76052 -0.91098,0.76052 12.9557,13.14745 c 8.81287,8.94331 13.5174,13.52391 14.71229,14.32473 2.79343,1.87217 7.11257,3.25345 10.14965,3.24589 l 1.32292,-0.003 z m -49.28552,-1.2723 0.588439,-0.52947 -7.10539,-7.30252 c -3.907964,-4.01639 -10.066355,-10.28831 -13.685313,-13.9376 -6.047023,-6.09771 -6.740636,-6.71248 -8.564298,-7.59082 -2.542971,-1.2248 -5.21487,-1.95581 -7.840178,-2.14503 l -2.081697,-0.15004 1.5875,0.36793 c 2.420724,0.56104 4.403294,1.37533 6.25629,2.56962 1.845289,1.18932 3.049522,2.37327 18.858602,18.54085 6.233894,6.37526 10.924713,10.97179 11.097799,10.87471 0.164894,-0.0925 0.564605,-0.40642 0.888246,-0.69763 z m 54.91596,-0.83948 c 2.48735,-0.52707 4.24012,-1.53761 6.43003,-3.70718 5.8868,-5.83211 5.82258,-15.31594 -0.14441,-21.32569 -1.80662,-1.81958 -4.75197,-3.51283 -6.62439,-3.80831 -0.86863,-0.13708 -0.97915,-0.068 -1.78258,1.11458 l -0.85653,1.26073 1.58482,0.32291 c 5.94311,1.21091 9.85156,6.43997 9.44899,12.64167 -0.31254,4.8148 -3.03864,8.70391 -7.34758,10.48224 -1.1325,0.46738 -1.95768,0.59579 -3.82525,0.59522 -2.77884,-8.3e-4 -4.63076,-0.59834 -6.71279,-2.16584 -0.71164,-0.53576 -7.3391,-7.14472 -14.72769,-14.68657 l -13.43381,-13.71245 -0.7833,0.78329 c -0.55251,0.55252 -0.71589,0.89858 -0.55452,1.17458 0.56813,0.97168 27.11897,27.57224 28.47859,28.53191 2.41959,1.70783 5.467,2.75996 8.26269,2.85272 0.43656,0.0145 1.60104,-0.14473 2.58773,-0.35381 z m -90.594092,-6.12782 c 0.72097,-0.41739 2.936981,-2.33631 4.924469,-4.26428 l 3.613615,-3.5054 -3.128361,-3.30902 c -3.383232,-3.57861 -4.740795,-4.69262 -6.456044,-5.2978 -3.662453,-1.29218 -7.909423,0.68729 -9.825615,4.57962 -0.769105,1.56228 -0.868329,2.01175 -0.858458,3.88868 0.01198,2.27908 0.543686,3.88457 1.856499,5.60576 2.359448,3.09339 6.742298,4.11541 9.873895,2.30244 z m 46.338192,-3.47255 4.55975,-4.43346 -4.28094,-4.23165 c -2.35451,-2.3274 -4.37339,-4.26469 -4.48639,-4.30507 -0.113,-0.0404 -2.21969,1.88511 -4.68152,4.27887 l -4.476065,4.35231 4.362615,4.38623 c 2.39944,2.41242 4.38066,4.38623 4.40272,4.38623 0.022,0 2.09197,-1.99506 4.59983,-4.43346 z m 44.26744,3.3353 c 1.88099,-0.95295 2.96693,-1.98677 3.90588,-3.71844 0.84758,-1.56315 0.90318,-1.82043 0.90318,-4.17924 0,-2.203 -0.0894,-2.69553 -0.72346,-3.98665 -1.94167,-3.95362 -6.07016,-5.86157 -9.87889,-4.56546 -1.07747,0.36667 -2.00683,1.13625 -5.35183,4.43177 l -4.04794,3.98805 2.92958,3.09082 c 1.61127,1.69995 3.50604,3.51397 4.21059,4.03116 2.39745,1.75989 5.64793,2.12639 8.05289,0.90799 z m -52.78104,-16.82736 c 13.89247,-13.45841 19.9686,-19.53931 21.084,-21.10053 3.98076,-5.57184 5.85024,-13.02076 4.79097,-19.089594 -1.48039,-8.48157 -6.74345,-15.196695 -14.14886,-18.052525 -2.87557,-1.108937 -5.11328,-1.44004 -8.7323,-1.292078 -5.408949,0.221144 -9.598527,1.990147 -13.599977,5.74244 -4.160979,3.90189 -6.600805,8.818204 -7.319023,14.748026 -0.677595,5.594431 1.078028,12.414901 4.496023,17.466721 0.47288,0.69892 2.224916,2.6618 3.893413,4.36195 l 3.03363,3.09118 0.759134,-0.56125 c 0.417523,-0.30869 0.759133,-0.67265 0.759133,-0.8088 0,-0.13616 -1.076143,-1.37322 -2.391428,-2.74903 -3.404409,-3.56108 -4.355429,-4.84917 -5.806539,-7.8646 -1.837802,-3.81899 -2.245647,-5.6295 -2.239445,-9.94139 0.006,-4.144332 0.507468,-6.354814 2.20815,-9.732822 2.153881,-4.27818 4.887587,-7.106377 8.742319,-9.044498 5.00387,-2.515896 10.56879,-2.743499 15.74269,-0.64387 5.42734,2.202474 9.80802,7.317364 11.58032,13.521195 0.85974,3.009439 0.859,8.585425 -0.002,11.588535 -0.83585,2.91698 -2.65636,6.53992 -4.3375,8.63194 -1.30975,1.62986 -6.86046,7.1249 -21.316492,21.10271 l -5.851133,5.65758 0.710815,0.89085 c 0.390948,0.48998 0.755828,0.89086 0.810844,0.89087 0.05502,0 3.264769,-3.06585 7.132786,-6.81301 z m 47.41299,-5.53889 c 5.50657,-7.26348 6.06516,-16.63072 1.43476,-24.0599 -3.84243,-6.16492 -10.42458,-9.890277 -17.47467,-9.890277 h -1.9611 v 1.269547 1.26955 l 2.18281,0.0228 c 4.15829,0.0434 7.70826,1.31572 11.0094,3.94583 6.99026,5.56931 8.86521,14.64758 4.77619,23.12563 -1.03673,2.14951 -1.35854,2.51899 -7.27759,8.35566 -3.40609,3.35869 -6.1929,6.20968 -6.1929,6.33553 0,0.12584 0.31382,0.55637 0.69738,0.95672 l 0.69738,0.72791 5.53422,-5.34364 c 3.04382,-2.939 6.00217,-5.96091 6.57412,-6.71534 z m -40.39538,-7.63275 c 5.07283,-4.93562 9.732,-9.69124 10.3537,-10.56804 2.45142,-3.45731 3.76997,-7.09802 3.9791,-10.98689 l 0.12094,-2.24896 -0.39311,2.05147 c -0.47998,2.50485 -1.56688,4.96542 -3.22487,7.30059 -1.43692,2.02379 -6.63149,7.27599 -19.92681,20.14783 -5.165989,5.00145 -9.435584,9.20044 -9.487988,9.33111 -0.0524,0.13066 0.240741,0.58829 0.651434,1.01696 l 0.746714,0.77941 3.978774,-3.92481 c 2.188326,-2.15865 8.129276,-7.96305 13.202116,-12.89867 z m 31.15673,10.5258 c 5.05048,-5.11372 5.79133,-5.97571 6.65149,-7.73906 4.41623,-9.05332 0.41754,-19.40276 -8.71249,-22.54974 -1.75937,-0.60643 -2.71263,-0.77537 -4.37516,-0.77537 -1.16912,0 -2.21807,0.0987 -2.331,0.21933 -0.11293,0.12062 -0.28537,0.71229 -0.38321,1.31481 l -0.17788,1.09548 1.73165,-0.139 c 6.05074,-0.48569 11.68611,3.61274 13.25623,9.64084 0.81141,3.11519 0.37703,7.32067 -1.06053,10.26761 -0.908,1.86138 -2.26665,3.39415 -7.40834,8.35782 -2.47385,2.3882 -4.54044,4.43999 -4.59241,4.55953 -0.12357,0.28421 1.02414,1.50244 1.41546,1.50244 0.16647,0 2.86026,-2.58961 5.98619,-5.75469 z m -39.686236,-8.43372 c 13.717906,-13.32192 16.428806,-16.09205 17.960246,-18.35263 3.31773,-4.89732 3.8201,-10.509447 1.39762,-15.613127 -1.22039,-2.57112 -4.17097,-5.567659 -6.69024,-6.794442 -6.21149,-3.024745 -13.25102,-1.920373 -17.994377,2.822985 -3.821575,3.821574 -5.28563,8.998379 -3.984072,14.087424 1.004959,3.92935 2.961588,6.80479 8.05236,11.83365 l 2.801389,2.76732 0.78568,-0.75273 0.78567,-0.75272 -3.717149,-3.90353 c -4.056196,-4.25957 -4.970106,-5.46566 -5.809097,-7.66629 -0.69493,-1.82276 -0.934145,-5.1866 -0.51296,-7.213224 1.356147,-6.525402 7.817905,-11.060056 14.325036,-10.052846 4.11443,0.636855 7.82787,3.352593 9.62872,7.041751 1.8972,3.886527 1.82399,7.662369 -0.2259,11.651199 -1.05545,2.05378 -1.58279,2.60562 -15.51239,16.23311 -7.930882,7.75887 -14.462312,14.23078 -14.514287,14.38202 -0.126816,0.36902 1.048792,1.59752 1.438135,1.50283 0.16974,-0.0413 5.473267,-5.09061 11.785616,-11.22075 z m 35.850966,5.93998 c 2.49163,-2.52113 4.66702,-4.84859 4.8342,-5.17215 l 0.30397,-0.58829 -1.2424,0.53256 c -2.1684,0.92948 -4.70122,2.8053 -7.79957,5.77639 l -3.00767,2.88412 0.76622,0.80904 c 0.56452,0.59606 0.87795,0.74759 1.19063,0.57561 0.23342,-0.12838 2.463,-2.29616 4.95462,-4.81728 z m -46.18127,-9.87567 c -1.725085,-1.75943 -3.698072,-4.06705 -4.384415,-5.12802 -1.221468,-1.8882 -3.573908,-6.57052 -3.573908,-7.11355 0,-0.4913 -1.621426,-0.85517 -3.809794,-0.85495 -1.82263,1.7e-4 -2.389548,0.11668 -3.788871,0.77868 -3.040185,1.43825 -5.048847,4.10388 -5.636858,7.48049 -0.313999,1.80312 -0.03189,4.41839 0.55258,5.12263 0.157403,0.18966 1.081848,0.64887 2.054323,1.02047 3.745074,1.43108 6.979826,3.7218 11.021229,7.80482 l 2.376983,2.40146 4.162625,-4.15653 4.162624,-4.15652 z m 43.57702,5.02164 c 1.49226,-1.23135 4.91196,-3.16539 7.02007,-3.97027 l 2.0226,-0.77222 0.31906,-1.42573 c 0.8927,-3.98899 -1.60145,-9.00735 -5.43965,-10.94486 -2.60419,-1.31459 -7.17252,-1.28372 -7.84949,0.053 -0.11054,0.21828 -0.86042,1.76609 -1.6664,3.43958 -1.73349,3.59932 -3.20768,5.59753 -6.63371,8.99172 l -2.53296,2.50942 4.15668,4.16277 4.15667,4.16278 2.78975,-2.74515 c 1.53436,-1.50983 3.18018,-3.06732 3.65738,-3.46108 z m -73.859561,-5.41837 c 0.28472,0 0.364801,-0.58953 0.368396,-2.71198 0.008,-4.73746 1.147382,-8.24654 3.827949,-11.78962 3.275702,-4.32971 9.026382,-7.19424 14.442774,-7.19424 h 2.051087 l 0.181816,-1.07616 c 0.1,-0.59189 0.111127,-1.146851 0.02473,-1.233249 -0.0864,-0.0864 -1.289793,-0.145618 -2.674211,-0.131599 -3.235813,0.03277 -6.128054,0.776338 -9.249114,2.377868 -1.94567,0.9984 -2.863311,1.69878 -4.918647,3.75412 -2.055199,2.0552 -2.755743,2.97302 -3.753889,4.91821 -2.027464,3.95112 -2.918117,8.24599 -2.463907,11.88137 l 0.190782,1.52696 0.804217,-0.16084 c 0.442319,-0.0885 0.967928,-0.16084 1.168019,-0.16084 z m 5.962314,-2.5063 c -0.07455,-2.29487 0.0079,-3.0657 0.479348,-4.48246 1.200556,-3.60767 3.421222,-6.12027 6.886723,-7.79208 1.853216,-0.89401 2.181019,-0.9637 4.959505,-1.05424 l 2.975131,-0.0969 -0.171029,-1.09597 c -0.09407,-0.60279 -0.30178,-1.18345 -0.461588,-1.29036 -0.497089,-0.33255 -3.648926,-0.21381 -5.422654,0.20429 -4.973787,1.17243 -9.512163,5.43909 -11.106055,10.44114 -0.463683,1.45516 -0.782299,4.76553 -0.598247,6.2157 0.152466,1.2013 0.239519,1.33622 0.961396,1.49005 1.669506,0.35576 1.595581,0.48111 1.49747,-2.53913 z m 33.868119,-0.0491 0.734128,-0.70334 -3.252933,-3.35749 c -5.36044,-5.53274 -7.116382,-8.22928 -8.113872,-12.46021 l -0.523979,-2.22249 0.124882,2.11666 c 0.218776,3.70814 1.782516,8.05043 3.897333,10.82237 0.842909,1.10482 6.054918,6.50784 6.277771,6.50784 0.0674,0 0.452899,-0.3165 0.85667,-0.70334 z m 10.305378,-10.08068 c 4.83805,-4.96356 5.66119,-6.39646 5.65247,-9.83966 -0.005,-1.886197 -0.12279,-2.514557 -0.7091,-3.77568 -3.55947,-7.656204 -13.85014,-7.860149 -17.562812,-0.348067 -0.920625,1.862757 -0.955493,2.035479 -0.865808,4.288867 0.144395,3.62803 0.971117,5.07421 5.60482,9.80452 2.03378,2.07618 3.78251,3.77488 3.88605,3.77488 0.10355,0 1.90102,-1.75719 3.99438,-3.90486 z" id="path1"></path></g></svg>